<svg width="24" height="24" viewBox="0 0 24 24" fill="none" xmlns="http://www.w3.org/2000/svg">
<circle cx="12" cy="12" r="12" fill="#222222"/>
<path d="M16.8515 7.82936C15.959 7.44605 15.0024 7.16274 14.002 7.00164C13.9931 7.00001 13.9839 7.00106 13.9756 7.00464C13.9674 7.00823 13.9605 7.01416 13.9559 7.02164C13.8334 7.22662 13.6969 7.49383 13.6013 7.70493C12.5403 7.55396 11.4616 7.55396 10.4006 7.70493C10.2941 7.47098 10.1739 7.24286 10.0407 7.02164C10.0362 7.01407 10.0294 7.008 10.0211 7.00423C10.0129 7.00046 10.0037 6.99917 9.99464 7.00053C8.99483 7.16163 8.03819 7.44494 7.14513 7.82881C7.13745 7.83188 7.13094 7.83711 7.12647 7.84381C5.31119 10.3853 4.81362 12.864 5.05803 15.3116C5.05871 15.3176 5.06066 15.3234 5.06377 15.3287C5.06688 15.3339 5.07108 15.3385 5.07611 15.3422C6.13564 16.0768 7.31741 16.6365 8.57193 16.9976C8.58067 17.0002 8.59003 17.0002 8.59877 16.9976C8.60751 16.9951 8.61523 16.99 8.62093 16.9832C8.89088 16.6394 9.1301 16.2746 9.33607 15.8927C9.33893 15.8875 9.34058 15.8818 9.3409 15.8759C9.34123 15.87 9.34022 15.8641 9.33795 15.8586C9.33569 15.8532 9.33221 15.8482 9.32776 15.8441C9.32331 15.84 9.31799 15.8369 9.31216 15.8349C8.93534 15.6998 8.57023 15.5367 8.22019 15.3472C8.2139 15.3438 8.2086 15.3389 8.20476 15.3331C8.20093 15.3272 8.19868 15.3206 8.19822 15.3137C8.19775 15.3068 8.19909 15.2999 8.20211 15.2936C8.20513 15.2874 8.20974 15.2819 8.21552 15.2778C8.28902 15.2261 8.36252 15.1722 8.43251 15.1183C8.43882 15.1135 8.4464 15.1104 8.45444 15.1094C8.46247 15.1084 8.47063 15.1096 8.47801 15.1128C10.7687 16.0927 13.2495 16.0927 15.5134 15.1128C15.5208 15.1094 15.529 15.1081 15.5372 15.109C15.5453 15.1099 15.5531 15.1129 15.5595 15.1178C15.6295 15.1722 15.7024 15.2261 15.7765 15.2778C15.7823 15.2818 15.787 15.2872 15.7901 15.2934C15.7932 15.2996 15.7947 15.3065 15.7943 15.3134C15.794 15.3203 15.7918 15.3269 15.7881 15.3329C15.7844 15.3388 15.7792 15.3437 15.773 15.3472C15.4241 15.5383 15.0613 15.7 14.6804 15.8344C14.6746 15.8364 14.6692 15.8396 14.6648 15.8437C14.6603 15.8479 14.6569 15.8529 14.6546 15.8584C14.6523 15.8639 14.6513 15.8698 14.6517 15.8758C14.652 15.8817 14.6536 15.8875 14.6565 15.8927C14.8665 16.2744 15.1068 16.6377 15.3711 16.9826C15.3766 16.9897 15.3842 16.995 15.393 16.9978C15.4017 17.0006 15.4112 17.0007 15.4201 16.9982C16.6767 16.638 17.8604 16.0781 18.9211 15.3422C18.9263 15.3388 18.9306 15.3343 18.9339 15.3291C18.9371 15.324 18.9391 15.3182 18.9398 15.3122C19.2315 12.4824 18.451 10.0237 16.8696 7.84492C16.8657 7.83784 16.8593 7.83232 16.8515 7.82936ZM9.67848 13.8212C8.989 13.8212 8.42026 13.2273 8.42026 12.4991C8.42026 11.7702 8.97792 11.1769 9.67848 11.1769C10.3843 11.1769 10.9478 11.7752 10.9367 12.4991C10.9367 13.2279 10.379 13.8212 9.67848 13.8212ZM14.3304 13.8212C13.6404 13.8212 13.0722 13.2273 13.0722 12.4991C13.0722 11.7702 13.6293 11.1769 14.3304 11.1769C15.0362 11.1769 15.5997 11.7752 15.5886 12.4991C15.5886 13.2279 15.0368 13.8212 14.3304 13.8212Z" fill="white"/>
</svg>