<svg width="24" height="24" viewBox="0 0 24 24" fill="none" xmlns="http://www.w3.org/2000/svg">
<circle cx="12" cy="12" r="12" fill="#222222"/>
<path d="M7.9096 11.6657C7.90959 11.5875 7.92502 11.5101 7.955 11.4379C7.98499 11.3657 8.02894 11.3001 8.08432 11.245C8.13971 11.1898 8.20545 11.1461 8.27776 11.1165C8.35007 11.0868 8.42753 11.0717 8.50568 11.0721L9.49392 11.0753C9.65149 11.0753 9.80261 11.1379 9.91403 11.2494C10.0254 11.3608 10.088 11.512 10.088 11.6696V15.4078C10.1994 15.3748 10.3421 15.3397 10.4985 15.303C10.6071 15.2774 10.7039 15.2159 10.7732 15.1284C10.8425 15.0409 10.8802 14.9326 10.8802 14.821V10.1841C10.8802 10.106 10.8956 10.0287 10.9254 9.95659C10.9553 9.88447 10.9991 9.81893 11.0542 9.76373C11.1094 9.70853 11.1749 9.66474 11.247 9.63486C11.3191 9.60498 11.3964 9.5896 11.4744 9.58959H12.4646C12.6221 9.58962 12.7732 9.65225 12.8847 9.7637C12.9961 9.87515 13.0587 10.0263 13.0587 10.1839V14.4878C13.0587 14.4878 13.3065 14.3874 13.5481 14.2854C13.6378 14.2474 13.7143 14.1839 13.7682 14.1027C13.822 14.0215 13.8508 13.9263 13.8508 13.8288V8.69797C13.8508 8.61993 13.8662 8.54264 13.896 8.47054C13.9259 8.39843 13.9697 8.33291 14.0248 8.27772C14.08 8.22253 14.1455 8.17875 14.2176 8.14888C14.2896 8.11901 14.3669 8.10364 14.4449 8.10364H15.4351C15.5927 8.10364 15.7438 8.16626 15.8552 8.27771C15.9667 8.38917 16.0293 8.54034 16.0293 8.69797V12.923C16.8877 12.3006 17.7578 11.552 18.4482 10.6519C18.5484 10.5212 18.6147 10.3678 18.6412 10.2053C18.6677 10.0428 18.6535 9.87622 18.6 9.7205C18.1329 8.35856 17.2566 7.1742 16.091 6.32937C14.9254 5.48454 13.5274 5.02047 12.0881 5.00063C8.20712 4.94848 4.99965 8.1177 5.00003 12.0006C4.99622 13.2293 5.31679 14.4372 5.92932 15.5021C6.01379 15.6478 6.13807 15.7663 6.28754 15.8438C6.43702 15.9213 6.60549 15.9544 6.77316 15.9394C6.96049 15.9229 7.19372 15.8996 7.47098 15.8671C7.59166 15.8533 7.70307 15.7957 7.784 15.7051C7.86493 15.6145 7.90972 15.4973 7.90984 15.3758V11.6657" fill="white"/>
<path d="M7.88799 17.6609C8.93174 18.4204 10.1652 18.8764 11.4519 18.9782C12.7386 19.08 14.0284 18.8238 15.1785 18.2379C16.3287 17.652 17.2944 16.7592 17.9689 15.6583C18.6433 14.5574 19.0002 13.2914 19 12.0002C19 11.839 18.9925 11.6796 18.9817 11.5211C16.4254 15.3349 11.7054 17.1179 7.88794 17.661" fill="white"/>
</svg>