<svg width="24" height="24" viewBox="0 0 24 24" fill="none" xmlns="http://www.w3.org/2000/svg">
<circle cx="12" cy="12" r="12" fill="#222222"/>
<path d="M19.5 8.08446C18.976 8.30996 18.413 8.46233 17.8212 8.5312C18.4318 8.17636 18.8887 7.61788 19.1065 6.95998C18.5328 7.29091 17.9049 7.52386 17.2501 7.64868C16.8098 7.1921 16.2265 6.88947 15.591 6.78778C14.9554 6.68609 14.303 6.79102 13.7351 7.08629C13.1673 7.38156 12.7156 7.85064 12.4504 8.4207C12.1852 8.99077 12.1212 9.62993 12.2683 10.2389C11.1058 10.1823 9.9686 9.88883 8.93044 9.3777C7.89228 8.86657 6.97639 8.14916 6.24222 7.27203C5.99118 7.69256 5.84684 8.18014 5.84684 8.69942C5.84656 9.16688 5.96509 9.62718 6.19193 10.0395C6.41877 10.4518 6.7469 10.8033 7.1472 11.063C6.68296 11.0486 6.22896 10.9268 5.82299 10.7076V10.7442C5.82294 11.3998 6.05647 12.0353 6.48395 12.5428C6.91143 13.0502 7.50654 13.3984 8.16828 13.5283C7.73762 13.6415 7.28611 13.6581 6.84784 13.577C7.03454 14.1412 7.39823 14.6345 7.88798 14.9879C8.37773 15.3414 8.96903 15.5372 9.5791 15.5481C8.54347 16.3376 7.26448 16.7659 5.94788 16.764C5.71465 16.764 5.48163 16.7508 5.25 16.7244C6.58643 17.5588 8.14214 18.0017 9.73097 18C15.1094 18 18.0496 13.6739 18.0496 9.92202C18.0496 9.80013 18.0465 9.67701 18.0409 9.55512C18.6128 9.15346 19.1064 8.65608 19.4987 8.08628L19.5 8.08446Z" fill="white"/>
</svg>